<?xml version="1.0" standalone="no"?>
<!DOCTYPE svg PUBLIC "-//W3C//DTD SVG 20010904//EN"
 "http://www.w3.org/TR/2001/REC-SVG-20010904/DTD/svg10.dtd">
<svg version="1.0" xmlns="http://www.w3.org/2000/svg"
 width="1280.000000pt" height="1264.000000pt" viewBox="0 0 1280.000000 1264.000000"
 preserveAspectRatio="xMidYMid meet">
<metadata>
Created by potrace 1.15, written by Peter Selinger 2001-2017
</metadata>
<g transform="translate(0.000000,1264.000000) scale(0.100000,-0.100000)"
fill="#2196f3" stroke="none">
<path d="M6150 12634 c-479 -26 -1014 -103 -1370 -195 -476 -125 -832 -256
-1245 -459 -1255 -618 -2267 -1629 -2885 -2885 -270 -549 -434 -1044 -551
-1665 -41 -217 -77 -535 -90 -800 -12 -227 -6 -637 11 -812 26 -255 32 -311
51 -443 64 -442 214 -997 373 -1379 200 -480 386 -835 611 -1171 846 -1261
2082 -2163 3539 -2585 372 -107 772 -179 1231 -222 182 -17 863 -17 1040 0
386 37 893 119 1190 193 535 134 1153 389 1618 668 526 316 873 586 1277 991
700 700 1215 1531 1524 2461 91 274 128 405 187 679 55 252 77 402 121 800 17
154 16 870 -1 1040 -12 117 -34 300 -47 394 -20 137 -98 525 -135 666 -175
667 -459 1307 -834 1875 -623 944 -1466 1690 -2491 2203 -256 128 -570 255
-894 360 -287 94 -676 183 -965 222 -188 25 -241 32 -375 46 -138 14 -740 26
-890 18z"/>
</g>
</svg>
