<?xml version="1.0" standalone="no"?>
<!DOCTYPE svg PUBLIC "-//W3C//DTD SVG 20010904//EN"
 "http://www.w3.org/TR/2001/REC-SVG-20010904/DTD/svg10.dtd">
<svg version="1.0" xmlns="http://www.w3.org/2000/svg"
 width="1280.000000pt" height="1280.000000pt" viewBox="0 0 1280.000000 1280.000000"
 preserveAspectRatio="xMidYMid meet">
<metadata>
Created by potrace 1.15, written by Peter Selinger 2001-2017
</metadata>
<g transform="translate(0.000000,1280.000000) scale(0.100000,-0.100000)"
fill="#2196f3" stroke="none">
<path d="M68 12793 c6 -2 18 -2 25 0 6 3 1 5 -13 5 -14 0 -19 -2 -12 -5z"/>
<path d="M143 12793 c9 -2 25 -2 35 0 9 3 1 5 -18 5 -19 0 -27 -2 -17 -5z"/>
<path d="M302 12793 c37 -2 100 -2 140 0 40 1 10 3 -67 3 -77 0 -110 -1 -73
-3z"/>
<path d="M558 12793 c7 -3 16 -2 19 1 4 3 -2 6 -13 5 -11 0 -14 -3 -6 -6z"/>
<path d="M718 12793 c23 -2 61 -2 85 0 23 2 4 4 -43 4 -47 0 -66 -2 -42 -4z"/>
<path d="M1053 12793 c26 -2 67 -2 90 0 23 2 2 3 -48 3 -49 0 -68 -1 -42 -3z"/>
<path d="M1283 12793 c9 -2 25 -2 35 0 9 3 1 5 -18 5 -19 0 -27 -2 -17 -5z"/>
<path d="M1393 12793 c9 -2 25 -2 35 0 9 3 1 5 -18 5 -19 0 -27 -2 -17 -5z"/>
<path d="M1542 12793 c37 -2 100 -2 140 0 40 1 10 3 -67 3 -77 0 -110 -1 -73
-3z"/>
<path d="M1798 12793 c7 -3 16 -2 19 1 4 3 -2 6 -13 5 -11 0 -14 -3 -6 -6z"/>
<path d="M1953 12793 c26 -2 67 -2 90 0 23 2 2 3 -48 3 -49 0 -68 -1 -42 -3z"/>
<path d="M2128 12793 c6 -2 18 -2 25 0 6 3 1 5 -13 5 -14 0 -19 -2 -12 -5z"/>
<path d="M2283 12793 c20 -2 54 -2 75 0 20 2 3 4 -38 4 -41 0 -58 -2 -37 -4z"/>
<path d="M2598 12793 c23 -2 61 -2 85 0 23 2 4 4 -43 4 -47 0 -66 -2 -42 -4z"/>
<path d="M2848 12793 c23 -2 59 -2 80 0 20 2 1 4 -43 4 -44 0 -61 -2 -37 -4z"/>
<path d="M3093 12793 c26 -2 67 -2 90 0 23 2 2 3 -48 3 -49 0 -68 -1 -42 -3z"/>
<path d="M3283 12793 c15 -2 37 -2 50 0 12 2 0 4 -28 4 -27 0 -38 -2 -22 -4z"/>
<path d="M3478 12793 c17 -2 47 -2 65 0 17 2 3 4 -33 4 -36 0 -50 -2 -32 -4z"/>
<path d="M3618 12793 c17 -2 47 -2 65 0 17 2 3 4 -33 4 -36 0 -50 -2 -32 -4z"/>
<path d="M3928 12793 c7 -3 16 -2 19 1 4 3 -2 6 -13 5 -11 0 -14 -3 -6 -6z"/>
<path d="M4338 12793 c7 -3 16 -2 19 1 4 3 -2 6 -13 5 -11 0 -14 -3 -6 -6z"/>
<path d="M4548 12793 c7 -3 16 -2 19 1 4 3 -2 6 -13 5 -11 0 -14 -3 -6 -6z"/>
<path d="M4858 12793 c7 -3 16 -2 19 1 4 3 -2 6 -13 5 -11 0 -14 -3 -6 -6z"/>
<path d="M5168 12793 c7 -3 16 -2 19 1 4 3 -2 6 -13 5 -11 0 -14 -3 -6 -6z"/>
<path d="M8058 12793 c7 -3 16 -2 19 1 4 3 -2 6 -13 5 -11 0 -14 -3 -6 -6z"/>
<path d="M8678 12793 c7 -3 16 -2 19 1 4 3 -2 6 -13 5 -11 0 -14 -3 -6 -6z"/>
<path d="M9298 12793 c7 -3 16 -2 19 1 4 3 -2 6 -13 5 -11 0 -14 -3 -6 -6z"/>
<path d="M9508 12793 c7 -3 16 -2 19 1 4 3 -2 6 -13 5 -11 0 -14 -3 -6 -6z"/>
<path d="M10128 12793 c7 -3 16 -2 19 1 4 3 -2 6 -13 5 -11 0 -14 -3 -6 -6z"/>
<path d="M10228 12793 c7 -3 16 -2 19 1 4 3 -2 6 -13 5 -11 0 -14 -3 -6 -6z"/>
<path d="M10328 12793 c7 -3 16 -2 19 1 4 3 -2 6 -13 5 -11 0 -14 -3 -6 -6z"/>
<path d="M11158 12793 c6 -2 18 -2 25 0 6 3 1 5 -13 5 -14 0 -19 -2 -12 -5z"/>
<path d="M11588 12793 c6 -2 18 -2 25 0 6 3 1 5 -13 5 -14 0 -19 -2 -12 -5z"/>
<path d="M12218 12793 c7 -3 16 -2 19 1 4 3 -2 6 -13 5 -11 0 -14 -3 -6 -6z"/>
<path d="M591 12316 c-8 -10 -10 -1517 -9 -5799 3 -5673 3 -5785 22 -5806 l19
-21 5782 0 c4878 0 5784 2 5794 14 15 18 16 11578 1 11607 -11 19 -80 19
-5804 19 -4870 0 -5795 -2 -5805 -14z m3816 -828 c-1 -134 -2 -25 -2 242 0
267 1 376 2 243 2 -134 2 -352 0 -485z m-2721 674 c5 2 10 0 12 -4 6 -19 0
-28 -18 -28 -12 0 -17 5 -14 14 3 8 1 17 -5 21 -6 3 -11 12 -11 18 0 7 7 4 14
-6 8 -10 18 -16 22 -15z m9452 -8 c-24 -24 -44 -7 -22 17 12 13 21 16 28 9 7
-7 5 -15 -6 -26z m-8198 22 c0 -2 -8 -10 -17 -17 -16 -13 -17 -12 -4 4 13 16
21 21 21 13z m7734 -11 c15 -11 17 -18 8 -27 -13 -13 -42 6 -42 28 0 18 10 17
34 -1z m-8523 -8 c-6 -8 -9 -17 -6 -21 3 -3 0 -2 -6 3 -12 10 -4 31 13 31 7 0
7 -4 -1 -13z m2206 -669 c-1 -128 -2 -26 -2 227 0 253 1 358 2 233 2 -125 2
-332 0 -460z m-2757 555 c0 -12 -11 -16 -27 -10 -5 1 -7 8 -5 15 2 6 -2 12 -8
12 -5 0 -10 4 -10 9 0 5 11 4 25 -2 14 -7 25 -18 25 -24z m8985 8 c3 -5 0 -13
-5 -16 -13 -8 -52 24 -44 36 6 10 39 -5 49 -20z m665 15 c0 -7 -6 -19 -14 -25
-19 -16 -32 5 -16 24 16 19 30 19 30 1z m-8990 -5 c0 -12 -20 -25 -27 -18 -7
7 6 27 18 27 5 0 9 -4 9 -9z m1335 -11 c3 -6 -1 -7 -9 -4 -18 7 -21 14 -7 14
6 0 13 -4 16 -10z m6879 -122 c-4 -6 -15 -2 -26 10 -12 12 -17 25 -13 33 6 9
13 6 27 -10 10 -13 15 -28 12 -33z m874 24 c-7 -10 -13 -19 -15 -21 -1 -1 -7
0 -13 4 -8 5 -6 13 6 26 20 22 40 14 22 -9z m-9883 8 c3 -5 12 -7 20 -3 17 6
18 2 9 -21 -3 -9 -13 -16 -21 -16 -9 0 -13 6 -9 15 3 8 -2 19 -12 24 -9 6 -12
11 -5 11 6 0 14 -4 18 -10z m890 -9 c-3 -6 -11 -11 -17 -11 -6 0 -6 6 2 15 14
17 26 13 15 -4z m-995 -91 c0 -5 -4 -10 -10 -10 -5 0 -10 5 -10 10 0 6 5 10
10 10 6 0 10 -4 10 -10z m9010 -9 c7 -14 7 -22 0 -26 -13 -8 -40 13 -40 31 0
21 28 17 40 -5z m1090 10 c0 -15 -28 -33 -40 -26 -8 5 -8 11 1 21 13 15 39 19
39 5z m-10056 -32 c-3 -5 -17 -9 -31 -9 -25 0 -26 0 -8 20 14 15 21 17 31 9 8
-6 11 -15 8 -20z m1057 22 c-8 -5 -10 -14 -6 -22 6 -11 5 -11 -5 -2 -14 12 -6
33 13 33 8 0 7 -3 -2 -9z m-1201 -102 c0 -6 -4 -7 -10 -4 -5 3 -10 11 -10 16
0 6 5 7 10 4 6 -3 10 -11 10 -16z m10300 7 c0 -7 -6 -19 -14 -25 -19 -16 -32
5 -16 24 16 19 30 19 30 1z m-10260 -20 c0 -14 -35 -28 -44 -18 -9 8 25 42 35
36 5 -3 9 -11 9 -18z m1266 5 c0 -11 -6 -17 -13 -14 -6 3 -9 11 -6 19 7 20 19
17 19 -5z m1334 4 c11 -13 10 -14 -4 -9 -9 3 -16 10 -16 15 0 13 6 11 20 -6z
m6368 -8 c5 -26 -12 -26 -31 -1 -18 24 -18 24 5 21 13 -2 24 -11 26 -20z
m1389 -104 c-13 -13 -20 -14 -29 -5 -9 9 -8 15 8 26 26 20 44 2 21 -21z
m-10503 20 c4 -4 15 -8 24 -8 26 0 20 -28 -7 -32 -17 -2 -22 1 -18 12 4 8 -1
19 -11 24 -9 6 -12 11 -6 11 6 0 14 -3 18 -7z m-104 -103 c0 -5 -2 -10 -4 -10
-3 0 -8 5 -11 10 -3 6 -1 10 4 10 6 0 11 -4 11 -10z m10720 1 c0 -15 -28 -33
-40 -26 -8 5 -8 11 1 21 13 15 39 19 39 5z m-10685 -37 c-9 -7 -23 -10 -31 -7
-13 5 -12 8 2 24 14 15 20 16 31 7 13 -10 12 -14 -2 -24z m-140 -64 c3 -5 1
-10 -4 -10 -6 0 -11 5 -11 10 0 6 2 10 4 10 3 0 8 -4 11 -10z m10925 -4 c0 -7
-6 -19 -14 -25 -19 -16 -32 5 -16 24 16 19 30 19 30 1z m-10880 -27 c0 -9 -37
-18 -44 -11 -4 3 2 14 11 24 13 14 18 16 25 6 4 -7 8 -16 8 -19z m3221 14 c13
-16 12 -17 -3 -4 -10 7 -18 15 -18 17 0 8 8 3 21 -13z m7763 -82 c8 -13 -20
-45 -32 -37 -9 5 -8 12 1 26 13 22 23 25 31 11z m-11130 -8 c4 -4 15 -8 23 -8
9 0 18 -6 20 -12 3 -7 -2 -13 -11 -13 -9 0 -19 0 -23 0 -5 0 -8 5 -8 10 0 6
-7 15 -15 20 -8 5 -10 10 -4 10 6 0 14 -3 18 -7z m-86 -109 c6 3 15 -1 22 -9
7 -8 11 -15 9 -16 -40 -8 -45 -6 -56 17 -10 22 -10 24 2 14 8 -7 18 -9 23 -6z
m11322 9 c0 -5 -7 -16 -14 -26 -11 -14 -15 -15 -24 -4 -9 10 -8 17 0 25 13 13
38 16 38 5z m-7673 -70 c-3 -10 -5 -2 -5 17 0 19 2 27 5 18 2 -10 2 -26 0 -35z
m4103 -525 c0 -6 -6 -5 -15 2 -8 7 -15 14 -15 16 0 2 7 1 15 -2 8 -4 15 -11
15 -16z m104 -104 c5 -14 4 -15 -9 -4 -17 14 -19 20 -6 20 5 0 12 -7 15 -16z
m100 -100 c3 -8 2 -12 -4 -9 -6 3 -10 10 -10 16 0 14 7 11 14 -7z m97 -101
c13 -16 12 -17 -3 -4 -17 13 -22 21 -14 21 2 0 10 -8 17 -17z m6 -39 c11 -10
12 -19 6 -25 -11 -11 -43 14 -43 32 0 14 20 11 37 -7z m-2567 -19 c0 -1 -10
-10 -22 -21 -17 -14 -20 -15 -9 -2 7 9 10 22 6 27 -3 7 0 8 9 5 9 -3 16 -7 16
-9z m-145 -75 c3 -5 1 -10 -4 -10 -6 0 -11 5 -11 10 0 6 2 10 4 10 3 0 8 -4
11 -10z m2609 -9 c12 -13 14 -21 6 -26 -13 -8 -52 24 -44 36 8 14 19 11 38
-10z m-2574 -26 c-7 -9 -15 -13 -17 -11 -7 7 7 26 19 26 6 0 6 -6 -2 -15z
m670 -65 c0 -5 -5 -10 -11 -10 -5 0 -7 5 -4 10 3 6 8 10 11 10 2 0 4 -4 4 -10z
m1794 -6 c20 -19 21 -34 2 -34 -18 0 -39 27 -31 40 8 13 11 13 29 -6z m-2554
-17 c0 -2 -9 -12 -20 -22 -24 -21 -27 -14 -4 9 15 15 24 20 24 13z m2459 -96
c6 -10 8 -21 4 -24 -9 -10 -43 12 -43 28 0 21 27 18 39 -4z m-2559 -4 c0 -2
-9 -12 -20 -22 -24 -21 -27 -14 -4 9 15 15 24 20 24 13z m-80 -91 c0 -2 -7 -7
-16 -10 -8 -3 -12 -2 -9 4 6 10 25 14 25 6z m2535 -6 c3 -5 1 -10 -4 -10 -6 0
-11 5 -11 10 0 6 2 10 4 10 3 0 8 -4 11 -10z m-2915 -300 c0 -5 -4 -10 -10
-10 -5 0 -10 5 -10 10 0 6 5 10 10 10 6 0 10 -4 10 -10z m40 -24 c0 -2 -7 -9
-15 -16 -13 -11 -14 -10 -9 4 5 14 24 23 24 12z m2890 -10 c0 -2 -6 -9 -13
-15 -10 -8 -14 -7 -14 4 0 8 6 15 14 15 7 0 13 -2 13 -4z m-4013 -768 c-1
-134 -2 -25 -2 242 0 267 1 376 2 243 2 -134 2 -352 0 -485z m978 702 c3 -5 1
-10 -4 -10 -6 0 -11 5 -11 10 0 6 2 10 4 10 3 0 8 -4 11 -10z m35 -35 c-7 -9
-15 -13 -19 -10 -3 3 1 10 9 15 21 14 24 12 10 -5z m3105 -21 c0 -12 -7 -19
-18 -19 -10 0 -22 -7 -27 -15 -6 -9 -10 -10 -10 -3 0 6 5 15 10 18 6 4 7 11 4
17 -7 11 15 29 31 25 6 -2 10 -12 10 -23z m-4213 -9 c0 -5 -5 -11 -11 -13 -6
-2 -11 4 -11 13 0 9 5 15 11 13 6 -2 11 -8 11 -13z m1018 -58 c0 -2 -9 -12
-20 -22 -24 -21 -27 -14 -4 9 15 15 24 20 24 13z m3298 -20 c7 -8 7 -17 -1
-27 -11 -14 -14 -14 -28 1 -12 12 -14 20 -6 28 14 14 22 14 35 -2z m-4414 -16
c3 -5 0 -14 -8 -20 -10 -9 -15 -8 -19 3 -9 22 15 37 27 17z m4367 -34 c-10 -9
-11 -8 -5 6 3 10 9 15 12 12 3 -3 0 -11 -7 -18z m-3401 -17 c0 -5 -2 -10 -4
-10 -3 0 -8 5 -11 10 -3 6 -1 10 4 10 6 0 11 -4 11 -10z m40 -24 c0 -2 -7 -9
-15 -16 -13 -11 -14 -10 -9 4 5 14 24 23 24 12z m3510 -41 c-13 -16 -15 -15
-27 1 -10 13 -10 21 -1 31 10 12 14 12 26 -1 13 -13 13 -17 2 -31z m-4622 4
c-2 -6 -8 -10 -13 -10 -5 0 -11 4 -13 10 -2 6 4 11 13 11 9 0 15 -5 13 -11z
m967 -39 c3 -5 1 -10 -4 -10 -6 0 -11 5 -11 10 0 6 2 10 4 10 3 0 8 -4 11 -10z
m35 -35 c-7 -9 -15 -13 -17 -11 -7 7 7 26 19 26 6 0 6 -6 -2 -15z m3725 -20
c0 -11 -7 -20 -15 -20 -8 0 -22 -5 -30 -10 -12 -7 -13 -6 -3 7 7 8 10 18 7 21
-10 10 7 28 24 25 10 -2 17 -12 17 -23z m-4834 -8 c-1 -12 -15 -9 -19 4 -3 6
1 10 8 8 6 -3 11 -8 11 -12z m1019 -60 c0 -2 -9 -12 -20 -22 -24 -21 -27 -14
-4 9 15 15 24 20 24 13z m-1115 -36 c7 -12 -12 -24 -25 -16 -11 7 -4 25 10 25
5 0 11 -4 15 -9z m5010 -11 c-10 -11 -23 -20 -29 -20 -6 1 0 10 13 20 30 26
39 26 16 0z m2728 -5 c-3 -9 -8 -14 -10 -11 -3 3 -2 9 2 15 9 16 15 13 8 -4z
m-6773 -35 c0 -5 -2 -10 -4 -10 -3 0 -8 5 -11 10 -3 6 -1 10 4 10 6 0 11 -4
11 -10z m50 -13 c0 -2 -10 -12 -22 -23 l-23 -19 19 23 c18 21 26 27 26 19z
m4122 -49 c-29 -29 -50 -6 -28 31 7 10 11 10 24 -3 13 -12 13 -19 4 -28z
m-5247 -8 c-5 -8 -11 -8 -17 -2 -6 6 -7 16 -3 22 5 8 11 8 17 2 6 -6 7 -16 3
-22z m7753 8 c-8 -12 -20 -24 -26 -26 -7 -2 -2 8 11 22 27 32 34 33 15 4z
m-1284 -14 c5 -14 4 -15 -9 -4 -17 14 -19 20 -6 20 5 0 12 -7 15 -16z m-5454
-47 c0 -2 -10 -12 -22 -23 l-23 -19 19 23 c18 21 26 27 26 19z m4330 -22 c0
-22 -4 -30 -15 -30 -5 0 -17 -5 -25 -10 -12 -7 -13 -6 -3 7 7 8 10 18 7 21 -9
9 5 27 22 27 8 0 14 -7 14 -15z m2315 -14 c-3 -6 -16 -16 -28 -22 -20 -11 -20
-9 3 13 25 24 38 29 25 9z m-7764 -4 c-1 -12 -15 -9 -19 4 -3 6 1 10 8 8 6 -3
11 -8 11 -12z m6674 -15 c-3 -3 -11 0 -18 7 -9 10 -8 11 6 5 10 -3 15 -9 12
-12z m-5710 -22 c3 -5 1 -10 -4 -10 -6 0 -11 5 -11 10 0 6 2 10 4 10 3 0 8 -4
11 -10z m55 -23 c0 -2 -9 -12 -20 -22 -24 -21 -27 -14 -4 9 15 15 24 20 24 13z
m4530 -32 c0 -23 -2 -24 -21 -15 -16 9 -18 14 -8 26 17 21 29 17 29 -11z
m-5648 -10 c0 -5 -5 -11 -11 -13 -6 -2 -11 4 -11 13 0 9 5 15 11 13 6 -2 11
-8 11 -13z m7745 -8 c-12 -13 -24 -22 -26 -20 -6 4 30 43 40 43 5 0 -2 -10
-14 -23z m-2127 -11 c0 -3 -4 -8 -10 -11 -5 -3 -10 -1 -10 4 0 6 5 11 10 11 6
0 10 -2 10 -4z m-4650 -26 c0 -5 -2 -10 -4 -10 -3 0 -8 5 -11 10 -3 6 -1 10 4
10 6 0 11 -4 11 -10z m50 -13 c0 -2 -10 -12 -22 -23 l-23 -19 19 23 c18 21 26
27 26 19z m4735 -38 c1 -11 -3 -23 -8 -26 -6 -3 -7 -1 -4 4 4 6 0 14 -9 17
-13 5 -14 9 -4 21 15 18 23 13 25 -16z m-5856 -16 c-10 -11 -14 -11 -20 -1
-10 17 -2 28 17 21 11 -4 12 -8 3 -20z m7771 23 c0 -2 -7 -7 -16 -10 -8 -3
-12 -2 -9 4 6 10 25 14 25 6z m-686 -32 c3 -8 2 -12 -4 -9 -6 3 -10 10 -10 16
0 14 7 11 14 -7z m-7664 -4 c0 -5 -4 -10 -10 -10 -5 0 -10 5 -10 10 0 6 5 10
10 10 6 0 10 -4 10 -10z m6400 0 c0 -5 -5 -10 -11 -10 -5 0 -7 5 -4 10 3 6 8
10 11 10 2 0 4 -4 4 -10z m1915 0 c-3 -5 -12 -10 -18 -10 -7 0 -6 4 3 10 19
12 23 12 15 0z m-9561 -36 c3 -8 2 -12 -4 -9 -6 3 -10 10 -10 16 0 14 7 11 14
-7z m-246 -51 c-130 -2 -346 -2 -480 0 -134 1 -27 2 237 2 264 0 373 -1 243
-2z m340 0 c-15 -2 -42 -2 -60 0 -18 2 -6 4 27 4 33 0 48 -2 33 -4z m355 0
c-7 -2 -21 -2 -30 0 -10 3 -4 5 12 5 17 0 24 -2 18 -5z m700 0 c-122 -2 -324
-2 -450 0 -125 1 -25 2 222 2 248 0 350 -1 228 -2z m1330 0 c-139 -2 -367 -2
-505 0 -139 1 -26 2 252 2 278 0 391 -1 253 -2z m5025 0 c-142 -2 -374 -2
-515 0 -142 1 -26 2 257 2 283 0 399 -1 258 -2z m1275 0 c-116 -2 -310 -2
-430 0 -120 1 -24 2 212 2 237 0 335 -1 218 -2z m295 0 c-16 -2 -40 -2 -55 0
-16 2 -3 4 27 4 30 0 43 -2 28 -4z m370 0 c-10 -2 -28 -2 -40 0 -13 2 -5 4 17
4 22 1 32 -1 23 -4z m750 0 c-130 -2 -346 -2 -480 0 -134 1 -27 2 237 2 264 0
373 -1 243 -2z m-7608 -143 c0 -5 -2 -10 -4 -10 -3 0 -8 5 -11 10 -3 6 -1 10
4 10 6 0 11 -4 11 -10z m4320 6 c0 -3 -4 -8 -10 -11 -5 -3 -10 -1 -10 4 0 6 5
11 10 11 6 0 10 -2 10 -4z m-4270 -19 c0 -2 -10 -12 -22 -23 l-23 -19 19 23
c18 21 26 27 26 19z m-155 -87 c3 -5 1 -10 -4 -10 -6 0 -11 5 -11 10 0 6 2 10
4 10 3 0 8 -4 11 -10z m4525 0 c0 -5 -5 -10 -11 -10 -5 0 -7 5 -4 10 3 6 8 10
11 10 2 0 4 -4 4 -10z m-4480 -23 c0 -2 -10 -12 -22 -23 l-23 -19 19 23 c18
21 26 27 26 19z m-150 -77 c0 -5 -5 -10 -11 -10 -5 0 -7 5 -4 10 3 6 8 10 11
10 2 0 4 -4 4 -10z m4735 0 c3 -5 1 -10 -4 -10 -6 0 -11 5 -11 10 0 6 2 10 4
10 3 0 8 -4 11 -10z m-4685 -23 c0 -2 -9 -12 -20 -22 -24 -21 -27 -14 -4 9 15
15 24 20 24 13z m-150 -87 c0 -5 -2 -10 -4 -10 -3 0 -8 5 -11 10 -3 6 -1 10 4
10 6 0 11 -4 11 -10z m50 -13 c0 -2 -9 -12 -20 -22 -24 -21 -27 -14 -4 9 15
15 24 20 24 13z m-155 -87 c3 -5 1 -10 -4 -10 -6 0 -11 5 -11 10 0 6 2 10 4
10 3 0 8 -4 11 -10z m5145 0 c0 -5 -5 -10 -11 -10 -5 0 -7 5 -4 10 3 6 8 10
11 10 2 0 4 -4 4 -10z m-5090 -13 c0 -2 -12 -14 -27 -28 l-28 -24 24 28 c23
25 31 32 31 24z m-163 -99 c-3 -8 -6 -5 -6 6 -1 11 2 17 5 13 3 -3 4 -12 1
-19z m53 -11 c0 -2 -10 -12 -22 -23 l-23 -19 19 23 c18 21 26 27 26 19z m-150
-87 c0 -5 -2 -10 -4 -10 -3 0 -8 5 -11 10 -3 6 -1 10 4 10 6 0 11 -4 11 -10z
m30 -35 c-7 -9 -15 -13 -17 -11 -7 7 7 26 19 26 6 0 6 -6 -2 -15z m2770 -35
c0 -5 -5 -10 -11 -10 -5 0 -7 5 -4 10 3 6 8 10 11 10 2 0 4 -4 4 -10z m-2905
-30 c3 -5 1 -10 -4 -10 -6 0 -11 5 -11 10 0 6 2 10 4 10 3 0 8 -4 11 -10z m35
-35 c-7 -9 -15 -13 -19 -10 -3 3 1 10 9 15 21 14 24 12 10 -5z m2984 -33 c3
-5 -1 -9 -9 -9 -8 0 -12 4 -9 9 3 4 7 8 9 8 2 0 6 -4 9 -8z m-3074 -55 c0 -2
-9 -12 -20 -22 -24 -21 -27 -14 -4 9 15 15 24 20 24 13z m3163 -52 c-3 -9 -8
-14 -10 -11 -3 3 -2 9 2 15 9 16 15 13 8 -4z m-3313 -35 c0 -5 -4 -10 -10 -10
-5 0 -10 5 -10 10 0 6 5 10 10 10 6 0 10 -4 10 -10z m6180 0 c0 -5 -2 -10 -4
-10 -3 0 -8 5 -11 10 -3 6 -1 10 4 10 6 0 11 -4 11 -10z m-6140 -24 c0 -2 -7
-9 -15 -16 -13 -11 -14 -10 -9 4 5 14 24 23 24 12z m-310 -311 c0 -1 -10 -10
-22 -21 -14 -12 -18 -13 -10 -3 6 9 10 18 7 21 -3 2 2 5 10 5 8 0 15 -1 15 -2z
m-145 -75 c3 -5 1 -10 -4 -10 -6 0 -11 5 -11 10 0 6 2 10 4 10 3 0 8 -4 11
-10z m35 -35 c-7 -9 -15 -13 -17 -11 -7 7 7 26 19 26 6 0 6 -6 -2 -15z m-90
-88 c0 -2 -9 -12 -20 -22 -24 -21 -27 -14 -4 9 15 15 24 20 24 13z m-150 -87
c0 -5 -2 -10 -4 -10 -3 0 -8 5 -11 10 -3 6 -1 10 4 10 6 0 11 -4 11 -10z m50
-13 c0 -2 -9 -12 -20 -22 -24 -21 -27 -14 -4 9 15 15 24 20 24 13z m4715 -157
c-3 -5 -12 -10 -18 -10 -7 0 -6 4 3 10 19 12 23 12 15 0z m2725 -291 c0 -11
-4 -18 -9 -14 -5 3 -12 1 -16 -5 -3 -5 -11 -10 -17 -10 -6 0 -1 11 12 25 28
30 30 30 30 4z m-7474 -94 c4 -8 10 -13 14 -10 4 3 10 -2 14 -10 8 -23 -8 -18
-34 10 -13 14 -18 25 -11 25 6 0 14 -7 17 -15z m7385 5 c1 -5 2 -14 3 -19 0
-5 4 -13 9 -17 16 -17 6 -26 -13 -11 -11 10 -22 17 -25 17 -3 0 -9 0 -15 0
-11 0 20 38 33 39 4 1 8 -3 8 -9z m-7279 -104 c6 4 8 2 5 -3 -4 -6 0 -13 8
-17 8 -3 15 -11 15 -17 0 -8 -7 -6 -18 4 -10 10 -21 15 -23 12 -3 -2 -5 6 -6
18 0 12 1 16 4 9 3 -6 10 -9 15 -6z m7166 -8 c-2 -3 6 -15 16 -27 11 -12 14
-21 7 -21 -6 0 -14 7 -17 15 -4 10 -13 13 -25 10 -22 -7 -24 0 -6 20 11 14 32
16 25 3z m-7183 -38 c3 -5 1 -10 -4 -10 -6 0 -11 5 -11 10 0 6 2 10 4 10 3 0
8 -4 11 -10z m130 -58 c-2 -3 0 -13 6 -23 13 -26 7 -24 -21 5 -22 24 -22 25
-2 23 12 0 19 -3 17 -5z m6960 -16 c0 -9 6 -20 14 -25 9 -6 10 -11 3 -15 -6
-4 -16 3 -22 14 -7 12 -18 19 -26 16 -11 -4 -12 -2 -1 14 14 23 32 21 32 -4z
m-6990 -26 c3 -5 1 -10 -4 -10 -6 0 -11 5 -11 10 0 6 2 10 4 10 3 0 8 -4 11
-10z m437 -374 c7 4 8 2 4 -4 -3 -6 2 -15 11 -21 10 -6 13 -11 6 -11 -6 0 -15
5 -18 10 -4 6 -10 8 -14 6 -4 -3 -7 5 -8 17 0 12 1 16 4 9 3 -6 10 -9 15 -6z
m6138 -5 c0 -11 5 -23 10 -26 6 -3 10 -11 10 -17 0 -6 -7 -5 -17 4 -10 9 -26
14 -35 13 -10 -2 -18 -1 -18 3 0 8 33 41 43 41 4 1 7 -8 7 -18z m-6046 -97 c3
-8 2 -12 -4 -9 -6 3 -10 10 -10 16 0 14 7 11 14 -7z m5943 -9 c-4 -8 -2 -17 3
-20 6 -4 10 -11 10 -18 0 -8 -3 -8 -12 1 -7 7 -20 12 -30 12 -21 0 -22 6 -5
25 16 19 41 19 34 0z m-5907 -26 c0 -6 -4 -7 -10 -4 -5 3 -10 11 -10 16 0 6 5
7 10 4 6 -3 10 -11 10 -16z m-45 -9 c3 -5 1 -10 -4 -10 -6 0 -11 5 -11 10 0 6
2 10 4 10 3 0 8 -4 11 -10z m132 -56 c-3 -4 -2 -16 4 -28 10 -20 9 -20 -5 -2
-14 17 -13 36 1 36 4 0 3 -3 0 -6z m5715 -14 c-1 -7 3 -20 10 -29 12 -14 11
-14 -4 -3 -9 8 -22 11 -27 8 -16 -10 -23 13 -9 28 15 17 34 15 30 -4z m-5747
-30 c3 -5 1 -10 -4 -10 -6 0 -11 5 -11 10 0 6 2 10 4 10 3 0 8 -4 11 -10z
m5632 -87 c-21 -22 -32 -11 -15 16 8 13 16 17 22 11 7 -7 4 -16 -7 -27z
m-5492 7 c-3 -4 0 -11 5 -13 6 -3 5 -4 -1 -3 -7 1 -13 10 -15 19 -1 9 2 15 7
11 5 -3 7 -9 4 -14z m5520 -21 c11 -17 -1 -21 -15 -4 -8 9 -8 15 -2 15 6 0 14
-5 17 -11z m-5426 -64 c8 0 16 -11 18 -24 3 -23 2 -24 -15 -8 -10 10 -21 15
-23 12 -3 -2 -6 6 -6 18 -1 12 1 17 5 12 4 -6 13 -10 21 -10z m5305 -8 c1 -8
8 -22 15 -31 8 -10 9 -16 3 -16 -6 0 -14 5 -17 10 -3 6 -15 10 -26 10 -23 0
-24 4 -2 30 18 21 23 20 27 -3z m-5329 -37 c3 -5 2 -10 -4 -10 -5 0 -13 5 -16
10 -3 6 -2 10 4 10 5 0 13 -4 16 -10z m140 -71 c-4 -5 -1 -9 5 -9 6 0 8 -5 4
-12 -5 -8 -11 -6 -20 7 -14 19 -9 39 7 29 5 -3 7 -10 4 -15z m5087 -2 c-1 -8
2 -18 8 -22 5 -3 10 -11 10 -18 0 -6 -6 -3 -13 8 -8 10 -19 15 -25 11 -17 -10
-25 12 -10 28 16 19 34 14 30 -7z m-5127 -27 c3 -5 1 -10 -4 -10 -6 0 -11 5
-11 10 0 6 2 10 4 10 3 0 8 -4 11 -10z m115 -60 c0 -5 -2 -10 -4 -10 -3 0 -8
5 -11 10 -3 6 -1 10 4 10 6 0 11 -4 11 -10z m4900 -24 c-17 -22 -32 -9 -19 16
8 14 14 17 22 9 7 -7 6 -15 -3 -25z m-4873 10 c-4 -11 -1 -13 11 -9 13 5 14 3
5 -7 -6 -7 -16 -9 -22 -6 -14 9 -14 36 0 36 6 0 9 -7 6 -14z m-37 -37 c0 -6
-4 -7 -10 -4 -5 3 -10 11 -10 16 0 6 5 7 10 4 6 -3 10 -11 10 -16z m4935 10
c11 -17 -1 -21 -15 -4 -8 9 -8 15 -2 15 6 0 14 -5 17 -11z m-4818 -53 c-4 -10
-1 -13 9 -9 9 3 14 -1 14 -12 0 -9 4 -13 10 -10 6 3 7 -1 4 -10 -6 -14 -8 -14
-24 0 -9 8 -19 13 -22 10 -4 -5 -4 34 1 43 5 10 12 -1 8 -12z m4691 -18 c-2
-3 6 -15 16 -27 23 -25 19 -26 -22 -5 -26 12 -29 18 -19 29 12 14 32 16 25 3z
m-4703 -38 c3 -5 2 -10 -4 -10 -5 0 -13 5 -16 10 -3 6 -2 10 4 10 5 0 13 -4
16 -10z m140 -82 c2 -20 1 -20 -11 -3 -7 10 -11 22 -8 27 8 13 17 2 19 -24z
m4470 11 c0 -8 4 -20 8 -26 5 -8 4 -13 -2 -13 -6 0 -11 5 -11 10 0 6 -9 10
-20 10 -23 0 -25 5 -7 25 14 17 32 14 32 -6z m-4510 -29 c3 -5 1 -10 -4 -10
-6 0 -11 5 -11 10 0 6 2 10 4 10 3 0 8 -4 11 -10z m145 -82 c0 -17 -3 -18 -14
-8 -8 6 -12 18 -9 26 7 19 23 7 23 -18z m4253 -4 c-23 -16 -40 -1 -22 19 10
11 18 12 27 5 10 -8 8 -13 -5 -24z m-5502 -177 c-7 -7 -15 -6 -26 3 -12 10
-13 15 -3 21 17 11 42 -11 29 -24z m6759 24 c0 -12 -20 -25 -27 -18 -7 7 6 27
18 27 5 0 9 -4 9 -9z m-5393 -769 c-1 -141 -2 -25 -2 258 0 283 1 399 2 257 2
-141 2 -373 0 -515z m6728 758 c3 -6 -1 -7 -9 -4 -18 7 -21 14 -7 14 6 0 13
-4 16 -10z m-8201 -120 c-13 -13 -49 24 -39 40 5 9 14 6 28 -9 15 -14 18 -24
11 -31z m6963 21 c-1 -11 -6 -17 -14 -14 -10 4 -11 9 -2 19 15 19 18 18 16 -5z
m-5299 -33 c2 -10 9 -15 16 -11 6 3 6 0 -2 -8 -10 -11 -17 -9 -39 13 l-27 27
24 -2 c13 -1 25 -9 28 -19z m3635 -12 c-10 -6 -27 -12 -38 -13 -18 -3 -18 -1
5 20 18 18 28 22 38 14 11 -8 10 -13 -5 -21z m-3673 -27 c0 -6 -4 -7 -10 -4
-5 3 -10 11 -10 16 0 6 5 7 10 4 6 -3 10 -11 10 -16z m3700 0 c0 -6 -4 -7 -10
-4 -5 3 -10 11 -10 16 0 6 5 7 10 4 6 -3 10 -11 10 -16z m-5431 -28 c6 -10 8
-21 4 -24 -9 -10 -43 12 -43 28 0 21 27 18 39 -4z m7172 0 c-8 -5 -10 -14 -6
-22 6 -11 5 -11 -5 -2 -14 12 -6 33 13 33 8 0 7 -3 -2 -9z m-5315 -27 c-4 -12
-2 -15 9 -11 17 7 29 -8 20 -24 -5 -7 -13 -5 -24 5 -10 9 -20 14 -22 11 -3 -2
-5 5 -6 15 -1 12 5 20 14 20 10 0 13 -6 9 -16z m3446 -9 c1 -11 -44 -37 -51
-29 -6 6 32 43 42 41 5 -2 9 -7 9 -12z m24 -42 c-7 -7 -26 7 -26 19 0 6 6 6
15 -2 9 -7 13 -15 11 -17z m-3491 7 c3 -5 2 -10 -4 -10 -5 0 -13 5 -16 10 -3
6 -2 10 4 10 5 0 13 -4 16 -10z m-1947 -22 c14 -14 16 -38 3 -38 -15 0 -42 31
-36 41 8 12 19 11 33 -3z m7382 -13 c-7 -9 -15 -13 -17 -11 -7 7 7 26 19 26 6
0 6 -6 -2 -15z m1341 -2 c13 -16 12 -17 -3 -4 -10 7 -18 15 -18 17 0 8 8 3 21
-13z m-6637 -25 c16 -22 12 -43 -5 -32 -6 3 -8 13 -5 21 4 11 2 13 -9 10 -15
-6 -29 6 -18 17 11 11 21 7 37 -16z m3230 -3 c-2 -14 0 -25 6 -25 5 0 10 -5
10 -12 0 -6 -7 -4 -18 5 -19 18 -37 23 -28 9 3 -5 -1 -9 -9 -9 -21 0 -19 8 12
34 33 28 33 28 27 -2z m-3269 -35 c3 -5 1 -10 -4 -10 -6 0 -11 5 -11 10 0 6 2
10 4 10 3 0 8 -4 11 -10z m-2141 -60 c-13 -13 -49 24 -39 40 5 9 14 6 28 -9
15 -14 18 -24 11 -31z m7583 16 c0 -8 -6 -12 -14 -9 -7 3 -10 9 -7 14 8 14 21
11 21 -5z m-5315 -18 c-9 -9 -15 -9 -24 0 -9 9 -7 12 12 12 19 0 21 -3 12 -12z
m3039 2 c1 -5 2 -14 3 -19 0 -5 4 -13 9 -17 4 -4 7 -12 7 -18 0 -6 -6 -3 -14
6 -9 12 -22 16 -42 12 l-29 -5 25 25 c27 27 39 32 41 16z m-3026 -20 c-3 -5
-1 -10 6 -10 7 0 10 -3 6 -6 -9 -9 -28 6 -22 17 4 5 8 9 11 9 3 0 2 -4 -1 -10z
m-35 -30 c0 -5 -2 -10 -4 -10 -3 0 -8 5 -11 10 -3 6 -1 10 4 10 6 0 11 -4 11
-10z m4055 -29 c7 -12 -12 -24 -25 -16 -11 7 -4 25 10 25 5 0 11 -4 15 -9z
m-3929 -27 c-4 -11 -2 -15 7 -11 8 3 14 -3 14 -15 2 -19 1 -19 -16 -4 -10 9
-20 14 -22 11 -3 -2 -5 5 -6 15 -1 12 5 20 14 20 10 0 13 -6 9 -16z m2834 -4
c12 -8 12 -10 1 -10 -11 0 -10 -5 4 -20 10 -11 13 -20 8 -20 -6 0 -14 7 -17
16 -5 12 -13 14 -33 9 -27 -6 -27 -6 -9 14 22 24 25 25 46 11z m-2855 -40 c3
-5 1 -10 -4 -10 -6 0 -11 5 -11 10 0 6 2 10 4 10 3 0 8 -4 11 -10z m6776 -37
c13 -16 12 -17 -3 -4 -10 7 -18 15 -18 17 0 8 8 3 21 -13z m-6636 -43 c1 -16
-1 -17 -13 -8 -9 8 -10 14 -3 16 6 2 8 9 4 15 -3 7 -2 9 2 4 5 -4 9 -16 10
-27z m2610 6 c0 -9 7 -21 15 -26 9 -6 10 -10 3 -10 -6 0 -15 5 -18 10 -3 6
-15 10 -26 10 -22 0 -24 5 -6 25 15 18 32 14 32 -9z m-2650 -26 c3 -5 1 -10
-4 -10 -6 0 -11 5 -11 10 0 6 2 10 4 10 3 0 8 -4 11 -10z m6780 -40 c3 -6 -1
-7 -9 -4 -18 7 -21 14 -7 14 6 0 13 -4 16 -10z m-6655 -24 c-7 -7 -14 -6 -21
1 -9 9 -7 12 9 10 14 -1 18 -5 12 -11z m2421 4 c1 -5 2 -14 3 -19 0 -5 4 -13
9 -17 16 -17 6 -26 -13 -11 -11 10 -22 17 -25 17 -3 0 -10 0 -17 0 -6 0 -3 9
8 19 21 22 33 26 35 11z m-2406 -20 c-3 -5 -1 -10 6 -10 7 0 10 -3 6 -6 -9 -9
-28 6 -22 17 4 5 8 9 11 9 3 0 2 -4 -1 -10z m-40 -20 c3 -5 1 -10 -4 -10 -6 0
-11 5 -11 10 0 6 2 10 4 10 3 0 8 -4 11 -10z m2341 -62 c-1 -13 4 -31 12 -40
9 -10 10 -18 5 -18 -6 0 -13 6 -16 14 -4 9 -14 12 -26 9 -12 -3 -21 -2 -21 2
0 6 41 54 46 55 1 0 0 -10 0 -22z m-2196 -19 c14 -26 12 -33 -5 -19 -8 7 -12
17 -8 24 5 7 2 7 -8 -1 -12 -10 -15 -8 -16 7 -2 23 23 16 37 -11z m90 -96 c11
-10 20 -22 20 -27 0 -5 -8 -2 -18 7 -10 10 -21 15 -24 12 -2 -3 -5 2 -5 10 0
19 2 19 27 -2z m2005 -7 c0 -9 7 -21 15 -26 8 -5 10 -10 4 -10 -6 0 -17 7 -24
15 -7 9 -19 14 -27 11 -16 -7 -17 1 0 19 15 18 32 14 32 -9z m-2030 -26 c3 -5
1 -10 -4 -10 -6 0 -11 5 -11 10 0 6 2 10 4 10 3 0 8 -4 11 -10z m128 -64 c-3
-5 2 -15 12 -23 11 -7 14 -13 9 -13 -6 0 -21 11 -34 24 -22 24 -22 25 -2 23
11 0 18 -5 15 -11z m1797 -4 c0 -10 5 -23 12 -30 8 -8 8 -12 1 -12 -6 0 -16 7
-23 15 -10 12 -16 13 -26 4 -20 -17 -17 1 4 22 22 23 32 23 32 1z m-1825 -32
c3 -5 1 -10 -4 -10 -6 0 -11 5 -11 10 0 6 2 10 4 10 3 0 8 -4 11 -10z m370
-300 c-3 -5 -11 -10 -16 -10 -6 0 -7 5 -4 10 3 6 11 10 16 10 6 0 7 -4 4 -10z
m-1448 -642 c-1 -117 -2 -24 -2 207 0 231 1 327 2 213 2 -114 2 -303 0 -420z
m-50 9 c-1 -111 -2 -20 -2 203 0 223 1 314 2 203 2 -112 2 -294 0 -406z m1566
560 c7 3 9 3 5 -2 -4 -4 0 -14 10 -21 9 -8 12 -14 5 -14 -6 0 -15 5 -18 10 -4
6 -10 8 -14 6 -4 -3 -7 5 -8 17 0 12 1 16 4 9 3 -6 10 -9 16 -5z m973 -13 c-3
-7 2 -18 12 -23 9 -5 13 -13 9 -17 -4 -4 -13 -2 -19 4 -7 7 -20 12 -30 12 -22
0 -22 5 -1 29 18 21 38 18 29 -5z m5164 -18 c0 -3 -4 -8 -10 -11 -5 -3 -10 -1
-10 4 0 6 5 11 10 11 6 0 10 -2 10 -4z m-6155 -16 c3 -5 2 -10 -4 -10 -5 0
-13 5 -16 10 -3 6 -2 10 4 10 5 0 13 -4 16 -10z m130 -59 c-3 -5 -1 -12 5 -16
5 -3 10 -12 10 -18 0 -7 -7 -3 -15 7 -13 17 -12 36 1 36 3 0 3 -4 -1 -9z m760
-8 c0 -6 3 -15 8 -19 13 -14 7 -27 -8 -14 -8 6 -19 9 -24 6 -16 -10 -23 13 -9
28 14 17 33 16 33 -1z m-790 -33 c3 -5 1 -10 -4 -10 -6 0 -11 5 -11 10 0 6 2
10 4 10 3 0 8 -4 11 -10z m2585 0 c0 -5 -4 -10 -10 -10 -5 0 -10 5 -10 10 0 6
5 10 10 10 6 0 10 -4 10 -10z m-2470 -60 c0 -5 -2 -10 -4 -10 -3 0 -8 5 -11
10 -3 6 -1 10 4 10 6 0 11 -4 11 -10z m574 -15 c-3 -7 -1 -16 5 -20 6 -3 11
-11 11 -17 0 -6 -9 -3 -20 7 -11 10 -20 14 -20 10 0 -5 -5 -4 -11 2 -8 8 -8
15 2 26 16 17 40 11 33 -8z m-548 -4 c-4 -5 -1 -12 4 -14 6 -3 5 -4 -2 -3 -15
3 -23 26 -8 26 6 0 9 -4 6 -9z m5714 -5 c0 -2 -8 -10 -17 -17 -16 -13 -17 -12
-4 4 13 16 21 21 21 13z m-5755 -16 c3 -5 1 -10 -4 -10 -6 0 -11 5 -11 10 0 6
2 10 4 10 3 0 8 -4 11 -10z m128 -53 c3 -8 -1 -14 -9 -14 -15 0 -18 9 -7 20 9
9 10 9 16 -6z m348 -10 c-6 -8 -9 -16 -6 -19 3 -2 -2 -5 -9 -5 -11 0 -13 5 -5
19 5 10 15 18 21 18 7 0 7 -4 -1 -13z m5150 -50 c-10 -9 -11 -8 -5 6 3 10 9
15 12 12 3 -3 0 -11 -7 -18z m-10557 -26 c10 -10 13 -21 9 -24 -13 -8 -37 9
-29 21 3 6 0 13 -6 15 -8 3 -8 6 -2 6 6 1 19 -8 28 -18z m10476 -13 c0 -16 -3
-19 -11 -11 -6 6 -8 16 -5 22 11 17 16 13 16 -11z m-10586 -84 c17 -17 21 -34
8 -34 -18 0 -45 28 -38 38 9 15 12 15 30 -4z m10688 -20 c-7 -12 -11 -13 -17
-4 -4 7 -2 16 6 21 18 11 23 4 11 -17z m-10782 -89 c6 -8 9 -19 5 -25 -9 -14
-45 6 -45 25 0 19 24 19 40 0z m10887 -5 c-1 -11 -5 -20 -9 -20 -10 0 -10 4
-2 24 8 22 13 20 11 -4z m-10993 -99 c10 -10 13 -22 8 -25 -12 -7 -54 23 -47
35 9 14 20 11 39 -10z m11100 -6 c-6 -16 -24 -21 -24 -7 0 11 11 22 21 22 5 0
6 -7 3 -15z m-11204 -95 c21 -18 21 -20 5 -26 -19 -8 -49 22 -39 37 7 12 8 12
34 -11z m11302 -12 c-6 -6 -15 -8 -19 -4 -4 4 -1 11 7 16 19 12 27 3 12 -12z
m-7655 -420 c-3 -7 -5 -2 -5 12 0 14 2 19 5 13 2 -7 2 -19 0 -25z m7646 -35
c-24 -18 -37 -4 -16 17 12 12 20 14 25 6 4 -6 0 -16 -9 -23z m-11313 -17 c0
-3 -4 -8 -10 -11 -5 -3 -10 -1 -10 4 0 6 5 11 10 11 6 0 10 -2 10 -4z m11340
-6 c0 -5 -2 -10 -4 -10 -3 0 -8 5 -11 10 -3 6 -1 10 4 10 6 0 11 -4 11 -10z
m-7673 -708 c-1 -130 -2 -23 -2 238 0 261 1 368 2 237 2 -130 2 -344 0 -475z
m-50 6 c-1 -128 -2 -26 -2 227 0 253 1 358 2 233 2 -125 2 -332 0 -460z m7603
634 c0 -10 5 -23 12 -30 9 -9 9 -12 0 -12 -7 0 -12 5 -12 11 0 6 -7 9 -15 6
-20 -8 -29 11 -15 28 17 20 30 19 30 -3z m-7650 -27 c-7 -8 -17 -15 -23 -15
-6 0 -2 7 9 15 25 19 30 19 14 0z m-3470 -5 c0 -5 -5 -10 -11 -10 -5 0 -7 5
-4 10 3 6 8 10 11 10 2 0 4 -4 4 -10z m11016 -62 c-1 -13 3 -30 8 -38 10 -13
9 -13 -6 -2 -9 8 -22 11 -27 8 -22 -14 -22 18 0 35 13 10 25 19 25 19 1 0 0
-10 0 -22z m-7635 -21 c-10 -9 -11 -8 -5 6 3 10 9 15 12 12 3 -3 0 -11 -7 -18z
m7534 -94 c0 -6 3 -15 8 -19 17 -17 5 -26 -13 -9 -11 10 -20 14 -20 10 0 -5
-6 -3 -12 3 -10 10 -10 15 2 22 18 11 35 8 35 -7z m-7648 -17 c-12 -14 -24
-23 -26 -20 -5 5 30 44 40 44 4 0 -2 -11 -14 -24z m-3057 -16 c0 -5 -4 -10
-10 -10 -5 0 -10 5 -10 10 0 6 5 10 10 10 6 0 10 -4 10 -10z m10598 -62 c-3
-7 -15 -14 -29 -16 -23 -2 -23 -2 -5 13 24 18 39 20 34 3z m-7640 -20 c-8 -12
-21 -24 -29 -26 -8 -3 -3 7 10 22 30 32 39 34 19 4z m-2858 -18 c0 -5 -4 -10
-10 -10 -5 0 -10 5 -10 10 0 6 5 10 10 10 6 0 10 -4 10 -10z m10520 0 c0 -5
-4 -10 -10 -10 -5 0 -10 5 -10 10 0 6 5 10 10 10 6 0 10 -4 10 -10z m-124 -75
c-2 -7 0 -18 5 -24 6 -8 5 -8 -3 -1 -7 6 -20 10 -30 10 -23 0 -23 16 -1 29 21
11 36 4 29 -14z m-7631 -4 c-3 -6 -16 -16 -28 -22 -21 -11 -21 -10 2 15 23 25
40 29 26 7z m6330 -21 c-3 -5 -11 -10 -16 -10 -6 0 -7 5 -4 10 3 6 11 10 16
10 6 0 7 -4 4 -10z m1198 -67 c7 -6 -21 -32 -35 -33 -13 0 -9 28 5 33 18 8 23
8 30 0z m-7644 -26 c-13 -13 -26 -22 -28 -20 -7 5 31 43 42 43 6 0 -1 -10 -14
-23z m6401 -2 c-7 -8 -17 -15 -23 -15 -6 0 -2 7 9 15 25 19 30 19 14 0z m1260
-16 c0 -6 -4 -7 -10 -4 -5 3 -10 11 -10 16 0 6 5 7 10 4 6 -3 10 -11 10 -16z
m-10100 1 c0 -5 -4 -10 -10 -10 -5 0 -10 5 -10 10 0 6 5 10 10 10 6 0 10 -4
10 -10z m9967 -75 c-9 -7 -13 -16 -9 -21 4 -4 -1 -2 -11 6 -18 13 -18 15 -1
27 9 7 21 10 27 6 6 -4 3 -11 -6 -18z m-8972 5 c3 -5 1 -10 -4 -10 -6 0 -11 5
-11 10 0 6 2 10 4 10 3 0 8 -4 11 -10z m1341 -15 c-13 -14 -26 -25 -30 -25 -3
0 4 11 16 25 12 14 25 25 29 25 5 0 -2 -11 -15 -25z m6394 -10 c-7 -9 -15 -13
-19 -10 -3 3 1 10 9 15 21 14 24 12 10 -5z m1266 -12 c-7 -7 -26 7 -26 19 0 6
6 6 15 -2 9 -7 13 -15 11 -17z m-9896 7 c0 -5 -4 -10 -10 -10 -5 0 -10 5 -10
10 0 6 5 10 10 10 6 0 10 -4 10 -10z m8990 0 c0 -5 -4 -10 -10 -10 -5 0 -10 5
-10 10 0 6 5 10 10 10 6 0 10 -4 10 -10z m784 -71 c-3 -5 0 -18 7 -27 12 -15
12 -15 -7 1 -24 20 -38 22 -28 5 5 -9 3 -9 -7 0 -12 11 -11 15 5 27 20 15 41
11 30 -6z m-7630 -4 c-4 -9 -16 -21 -28 -27 -19 -10 -18 -8 4 15 29 31 31 32
24 12z m7528 -109 c-2 -9 2 -16 8 -16 5 0 10 -4 10 -9 0 -5 -13 -3 -30 5 -32
16 -38 29 -17 37 20 8 32 1 29 -17z m-8982 4 c0 -5 -2 -10 -4 -10 -3 0 -8 5
-11 10 -3 6 -1 10 4 10 6 0 11 -4 11 -10z m7745 -10 c-3 -5 -12 -10 -18 -10
-7 0 -6 4 3 10 19 12 23 12 15 0z m-6422 -15 c-3 -9 -8 -14 -10 -11 -3 3 -2 9
2 15 9 16 15 13 8 -4z m-1803 1 c0 -3 -4 -8 -10 -11 -5 -3 -10 -1 -10 4 0 6 5
11 10 11 6 0 10 -2 10 -4z"/>
<path d="M640 90 c0 -5 5 -10 11 -10 5 0 7 5 4 10 -3 6 -8 10 -11 10 -2 0 -4
-4 -4 -10z"/>
</g>
</svg>
